# Blender 3.6.0
# www.blender.org
mtllib model.mtl
o Mesh_0
v 0.791016 -0.264144 -0.179968
v 0.661477 -0.164112 -0.245973
v 0.815092 -0.040678 -0.306115
v 0.683454 0.066864 -0.267696
v 0.421223 -0.002598 -0.252911
v 0.448029 0.265394 -0.137783
v 0.768012 0.269827 -0.077288
v -0.302923 0.133846 -0.179835
v -0.481636 0.028370 -0.218778
v -0.711072 0.145128 -0.205860
v -0.834269 0.177015 -0.173256
v -0.720780 -0.113724 -0.226364
v -0.777622 0.019497 -0.265693
v 0.841653 -0.228323 -0.087949
v 0.820971 -0.274032 0.021274
v 0.818658 0.161918 -0.236295
v 0.832623 0.037116 0.185162
v 0.796697 0.172484 0.105978
v 0.811591 0.242929 -0.096076
v -0.833713 -0.024758 -0.267722
v -0.845929 -0.230882 -0.175752
v -0.823547 0.162760 0.143472
v -0.796554 0.058977 0.248393
v -0.850173 0.202156 -0.054082
v -0.151542 -0.178203 -0.172531
v -0.176856 -0.217661 -0.109220
v -0.455988 -0.209652 -0.160935
v 0.179978 -0.208594 0.099883
v 0.271302 -0.207878 -0.162153
v -0.127067 -0.197474 0.100873
v 0.661791 -0.274712 0.071715
v 0.819580 -0.181394 0.173722
v -0.820022 -0.298692 0.007382
v -0.658847 -0.262524 0.128950
v -0.817617 -0.164689 0.213628
v -0.842287 -0.281651 0.015691
v -0.696386 -0.280202 -0.105242
v -0.248386 0.220717 -0.066494
v -0.057667 0.184950 0.044766
v -0.808700 0.250306 -0.047770
v 0.671049 0.114986 0.151933
v 0.802732 0.037233 0.216691
v -0.587723 0.126486 0.139110
v -0.033799 0.009124 0.151223
v 0.521033 -0.132080 0.169471
v -0.589037 -0.095179 0.206092
v -0.205715 -0.128367 0.154397
vn 0.0589 -0.4955 -0.8666
vn -0.0947 -0.6308 -0.7701
vn -0.3231 -0.0581 -0.9446
vn -0.1694 -0.2924 -0.9412
vn -0.0321 -0.0906 -0.9954
vn -0.0057 -0.4009 -0.9161
vn -0.0096 0.3260 -0.9453
vn -0.1101 0.4495 -0.8865
vn 0.0904 0.8372 -0.5394
vn -0.0417 0.5120 -0.8580
vn -0.0817 0.0974 -0.9919
vn -0.1106 0.8138 -0.5705
vn 0.0211 0.7886 -0.6146
vn -0.0460 -0.2877 -0.9566
vn -0.0220 0.3788 -0.9252
vn -0.0125 -0.2374 -0.9713
vn 0.0571 0.8471 -0.5283
vn 0.0684 0.2415 -0.9680
vn 0.0844 0.8528 -0.5153
vn 0.1594 -0.2169 -0.9631
vn -0.0156 0.0795 -0.9967
vn 0.0583 -0.4477 -0.8923
vn -0.1087 0.4738 -0.8739
vn 0.6274 0.0381 -0.7778
vn -0.2884 0.4053 -0.8675
vn 0.0128 -0.4081 -0.9129
vn 0.1933 -0.2010 -0.9603
vn 0.8800 -0.3018 -0.3668
vn 0.7301 -0.6685 -0.1415
vn 0.9943 0.0187 -0.1050
vn 0.9786 -0.1719 0.1134
vn 0.9934 -0.0643 0.0953
vn 0.9985 0.0521 -0.0176
vn 0.7233 -0.0791 0.6860
vn 0.6247 0.5111 0.5903
vn 0.9955 0.0952 -0.0048
vn 0.9152 0.3547 0.1911
vn 0.3121 0.8294 -0.4634
vn 0.5918 0.7466 0.3039
vn -0.9973 0.0289 -0.0677
vn -0.9992 0.0284 0.0265
vn -0.9989 0.0320 0.0353
vn -0.9928 0.0076 0.1193
vn -0.9559 0.0449 0.2903
vn -0.8370 -0.5471 0.0037
vn -0.7527 0.6188 0.2248
vn -0.7213 0.6519 -0.2338
vn 0.0694 -0.8588 -0.5075
vn 0.2727 -0.8617 -0.4280
vn -0.0693 -0.9972 -0.0269
vn -0.0357 -0.9939 0.1040
vn -0.1387 -0.9890 -0.0510
vn -0.1104 -0.9890 -0.0982
vn -0.0533 -0.6943 0.7177
vn -0.0108 -0.9988 -0.0475
vn 0.1662 -0.8420 0.5132
vn 0.1359 -0.9887 0.0628
vn 0.0455 -0.9204 -0.3884
vn 0.1269 -0.9841 0.1245
vn -0.2190 -0.8170 0.5334
vn -0.3992 -0.7667 0.5028
vn -0.6400 -0.7457 -0.1856
vn 0.3178 -0.9276 0.1965
vn 0.0658 -0.7467 -0.6619
vn -0.1552 -0.9334 -0.3236
vn -0.0458 0.9844 0.1699
vn -0.0410 0.9286 0.3687
vn 0.0586 0.9753 0.2130
vn 0.0275 0.9081 0.4178
vn -0.0026 0.8292 0.5590
vn -0.2115 0.8491 0.4841
vn -0.0067 0.6332 0.7739
vn 0.0949 0.5146 0.8522
vn 0.1235 0.7212 0.6816
vn -0.0773 0.5087 0.8575
vn 0.0927 0.5249 0.8461
vn -0.3044 0.2501 0.9192
vn -0.0128 0.0785 0.9968
vn -0.0463 -0.1961 0.9795
vn -0.0848 -0.4364 0.8957
vn -0.0200 -0.6224 0.7825
vn 0.3782 0.2657 0.8868
vn 0.0403 0.2888 0.9565
vn 0.0813 -0.1605 0.9837
vn 0.1716 -0.4706 0.8655
vn 0.1215 -0.1292 0.9841
vn 0.0817 -0.4451 0.8917
vn -0.0205 0.0486 0.9986
vn 0.1091 -0.5281 0.8421
vn -0.0194 -0.6259 0.7797
vt 0.747319 0.617291
vt 0.690969 0.690204
vt 0.763566 0.765399
vt 0.511106 0.650330
vt 0.699576 0.826080
vt 0.579522 0.782172
vt 0.317963 0.665596
vt 0.758612 0.889408
vt 0.585555 0.956937
vt 0.730124 0.999449
vt 0.244286 0.855761
vt 0.266444 0.940584
vt 0.013942 0.958535
vt 0.164318 0.784902
vt 0.180337 0.642085
vt 0.057620 0.848461
vt 0.002314 0.875294
vt 0.056536 0.697750
vt 0.004734 0.617291
vt 0.024559 0.772266
vt 0.000431 0.747772
vt 0.830850 0.462004
vt 0.947809 0.493430
vt 0.818284 0.524681
vt 0.768673 0.554942
vt 0.999569 0.600730
vt 0.758398 0.660794
vt 0.833950 0.745887
vt 0.823330 0.767070
vt 0.906207 0.764204
vt 0.986912 0.693673
vt 0.999569 0.720553
vt 0.988372 0.255965
vt 0.988372 0.386505
vt 0.909938 0.473018
vt 0.820632 0.452193
vt 0.854388 0.184473
vt 0.760982 0.340206
vt 0.789075 0.211937
vt 0.944091 0.212756
vt 0.953315 0.177863
vt 0.461399 0.000938
vt 0.474636 0.043879
vt 0.602003 0.010042
vt 0.308562 0.161283
vt 0.266465 0.007488
vt 0.449663 0.166721
vt 0.086987 0.145679
vt 0.026201 0.000551
vt 0.017531 0.229219
vt 0.013351 0.121885
vt 0.770224 0.116049
vt 0.694791 0.186959
vt 0.769647 0.259361
vt 0.782515 0.121561
vt 0.781802 0.000551
vt 0.714107 0.050748
vt 0.752034 0.266039
vt 0.607580 0.226322
vt 0.290406 0.259461
vt 0.373095 0.336056
vt 0.036890 0.226322
vt 0.020241 0.346545
vt 0.704727 0.425198
vt 0.762281 0.384549
vt 0.764427 0.482530
vt 0.126256 0.376083
vt 0.023504 0.430094
vt 0.378946 0.457957
vt 0.628658 0.564104
vt 0.760791 0.609729
vt 0.470488 0.604702
vt 0.332536 0.585470
vt 0.122109 0.512089
vt 0.021077 0.558384
vt 0.096470 0.620595
vt 0.297814 0.534508
s 0
usemtl Material_0
f 1/1/1 2/2/1 3/3/1
f 29/4/2 2/2/2 1/1/2
f 2/2/3 4/5/3 3/3/3
f 29/4/4 5/6/4 2/2/4
f 2/2/5 5/6/5 4/5/5
f 29/4/6 25/7/6 5/6/6
f 16/8/7 3/3/7 4/5/7
f 4/5/8 6/9/8 16/8/8
f 16/8/9 6/9/9 7/10/9
f 6/9/10 4/5/10 8/11/10
f 4/5/11 5/6/11 8/11/11
f 8/11/12 38/12/12 6/9/12
f 8/11/13 40/13/13 38/12/13
f 9/14/14 5/6/14 25/7/14
f 8/11/15 5/6/15 9/14/15
f 9/14/16 25/7/16 27/15/16
f 8/11/17 10/16/17 40/13/17
f 9/14/18 10/16/18 8/11/18
f 40/13/19 10/16/19 11/17/19
f 27/15/20 12/18/20 9/14/20
f 12/18/21 10/16/21 9/14/21
f 27/15/22 21/19/22 12/18/22
f 13/20/23 11/17/23 10/16/23
f 10/16/24 12/18/24 13/20/24
f 11/17/25 13/20/25 20/21/25
f 20/21/26 12/18/26 21/19/26
f 12/18/27 20/21/27 13/20/27
f 1/22/28 3/23/28 14/24/28
f 14/24/29 15/25/29 1/22/29
f 16/26/30 14/24/30 3/23/30
f 15/25/31 14/24/31 32/27/31
f 14/24/32 17/28/32 32/27/32
f 14/24/33 16/26/33 17/28/33
f 32/27/34 17/28/34 42/29/34
f 17/28/35 18/30/35 42/29/35
f 16/26/36 19/31/36 17/28/36
f 19/31/37 18/30/37 17/28/37
f 16/26/38 7/32/38 19/31/38
f 18/30/39 19/31/39 7/32/39
f 11/33/40 20/34/40 21/35/40
f 21/35/41 36/36/41 11/33/41
f 22/37/42 11/33/42 36/36/42
f 36/36/43 35/38/43 22/37/43
f 35/38/44 23/39/44 22/37/44
f 11/33/45 22/37/45 24/40/45
f 22/37/46 40/41/46 24/40/46
f 11/33/47 24/40/47 40/41/47
f 25/42/48 26/43/48 27/44/48
f 26/43/49 25/42/49 28/45/49
f 28/45/50 25/42/50 29/46/50
f 26/43/51 28/45/51 30/47/51
f 28/45/52 29/46/52 31/48/52
f 31/48/53 29/46/53 1/49/53
f 31/48/54 32/50/54 28/45/54
f 15/51/55 31/48/55 1/49/55
f 15/51/56 32/50/56 31/48/56
f 33/52/57 26/43/57 30/47/57
f 33/52/58 27/44/58 26/43/58
f 33/52/59 30/47/59 34/53/59
f 35/54/60 33/52/60 34/53/60
f 33/52/61 35/54/61 36/55/61
f 21/56/62 33/52/62 36/55/62
f 33/52/63 37/57/63 27/44/63
f 27/44/64 37/57/64 21/56/64
f 21/56/65 37/57/65 33/52/65
f 7/58/66 6/59/66 38/60/66
f 38/60/67 39/61/67 7/58/67
f 39/61/68 38/60/68 40/62/68
f 39/61/69 40/62/69 22/63/69
f 7/58/70 39/61/70 41/64/70
f 41/64/71 18/65/71 7/58/71
f 18/65/72 41/64/72 42/66/72
f 39/61/73 22/63/73 43/67/73
f 22/63/74 23/68/74 43/67/74
f 44/69/75 41/64/75 39/61/75
f 39/61/76 43/67/76 44/69/76
f 45/70/77 42/66/77 41/64/77
f 44/69/78 45/70/78 41/64/78
f 32/71/79 42/66/79 45/70/79
f 45/70/80 28/72/80 32/71/80
f 45/70/81 30/73/81 28/72/81
f 46/74/82 43/67/82 23/68/82
f 44/69/83 43/67/83 46/74/83
f 23/68/84 35/75/84 46/74/84
f 34/76/85 46/74/85 35/75/85
f 47/77/86 44/69/86 46/74/86
f 47/77/87 46/74/87 34/76/87
f 44/69/88 47/77/88 45/70/88
f 30/73/89 47/77/89 34/76/89
f 45/70/90 47/77/90 30/73/90
