# Blender 3.6.0
# www.blender.org
mtllib model.mtl
o Mesh_0
v -0.420089 -0.290052 -0.716489
v 0.211975 -0.099985 -0.594479
v -0.335232 -0.467398 -0.677471
v -0.742557 -0.353362 -0.547142
v -0.547645 0.152618 -0.652152
v -0.056564 0.267683 -0.616488
v 0.299776 0.612189 -0.436876
v 0.605216 0.060125 -0.432461
v 0.695305 -0.221634 -0.281272
v 0.605059 -0.651591 -0.174525
v -0.663931 0.145459 -0.449082
v -0.383539 0.339209 -0.590712
v -0.889176 -0.334511 -0.223600
v -0.362122 0.368744 -0.214160
v -0.635890 0.144036 -0.102260
v -0.330117 0.329409 0.049623
v -0.023831 0.262819 0.352500
v -0.258590 0.187621 0.328922
v -0.878641 -0.211029 0.053916
v -0.833665 -0.398676 0.321506
v -0.764993 -0.217919 -0.587249
v -0.841557 -0.476217 0.006276
v -0.924010 -0.398846 0.158473
v -0.358739 -0.646414 -0.184031
v -0.720396 -0.554615 0.382074
v 0.304256 -0.779260 -0.100546
v 0.425238 -0.510049 -0.450855
v -0.334528 -0.707779 0.185014
v 0.169626 -0.778086 0.241788
v 0.177644 -0.619154 0.573176
v 0.468863 -0.774553 0.090967
v 0.665856 -0.604024 0.202121
v 0.538535 -0.651033 0.378949
v 0.709168 0.089230 -0.254506
v 0.382130 0.617230 -0.168948
v 0.243148 0.705498 -0.308293
v 0.477162 0.472401 -0.038534
v 0.695964 0.144238 -0.003687
v 0.544949 0.114647 0.287190
v 0.445914 -0.112204 0.535788
v 0.139570 -0.177671 0.712131
v 0.487408 -0.533738 0.524156
v 0.806149 -0.168601 0.020153
v 0.728447 -0.274889 0.283904
v 0.616911 -0.531780 0.426622
v 0.363664 0.110687 0.501428
v 0.390368 0.473875 0.244665
v 0.112743 0.487694 0.255686
v -0.245660 -0.139026 0.581865
v -0.476967 -0.303638 0.523680
v -0.677648 -0.114289 0.366122
v -0.005978 -0.527521 0.619183
v -0.299304 -0.655117 0.508387
v -0.609858 -0.520182 0.488440
vn 0.2197 -0.1082 -0.9696
vn -0.3751 -0.3668 -0.8513
vn -0.3904 -0.3203 -0.8631
vn -0.3438 0.0373 -0.9383
vn 0.2706 -0.1898 -0.9438
vn 0.0357 0.1538 -0.9875
vn 0.1701 0.0654 -0.9832
vn -0.0054 0.3170 -0.9484
vn 0.0258 0.4411 -0.8971
vn 0.3083 0.1692 -0.9361
vn -0.1638 0.7627 -0.6256
vn 0.3164 0.1676 -0.9337
vn 0.4140 -0.1015 -0.9046
vn 0.7550 0.4137 -0.5087
vn 0.8631 0.0050 -0.5050
vn 0.6557 -0.1833 -0.7324
vn 0.7187 -0.3059 -0.6244
vn -0.8038 0.3933 -0.4464
vn -0.6453 0.6813 -0.3455
vn -0.9195 0.3344 -0.2068
vn -0.5788 0.8149 -0.0310
vn -0.4906 0.8705 -0.0404
vn -0.4453 0.8650 0.2311
vn 0.0609 0.9263 0.3718
vn -0.6204 0.7825 0.0534
vn -0.8890 0.4519 0.0737
vn -0.4052 0.8958 0.1827
vn -0.5759 0.7955 0.1885
vn -0.5047 0.5813 0.6382
vn -0.3100 0.8134 0.4923
vn -0.4798 0.7266 0.4917
vn -0.6056 0.7184 0.3423
vn -0.8474 0.4963 -0.1887
vn -0.7316 0.6225 0.2781
vn -0.9771 0.2057 -0.0544
vn -0.8172 0.4182 0.3965
vn -0.8112 0.3746 0.4491
vn -0.8849 -0.2608 -0.3858
vn -0.6877 -0.6730 -0.2724
vn -0.8207 -0.5464 -0.1668
vn -0.4123 -0.8710 -0.2671
vn -0.6379 -0.7688 0.0453
vn -0.3588 -0.9301 -0.0784
vn -0.7984 -0.4079 0.4429
vn -0.3517 -0.8745 -0.3340
vn -0.1427 -0.9282 -0.3436
vn 0.1266 -0.8072 -0.5766
vn -0.4194 -0.8996 -0.1221
vn -0.1760 -0.9729 -0.1502
vn -0.2801 -0.9422 0.1839
vn 0.2081 -0.8090 -0.5498
vn -0.1553 -0.9722 0.1752
vn -0.1326 -0.9900 -0.0487
vn 0.0093 -0.9017 0.4322
vn 0.3237 -0.9109 -0.2558
vn 0.0169 -0.9998 0.0101
vn 0.6580 -0.7529 -0.0111
vn 0.5734 -0.7940 0.2018
vn 0.1866 -0.9184 0.3488
vn 0.1496 -0.8929 0.4246
vn 0.2949 -0.6899 0.6611
vn 0.8025 0.5386 -0.2568
vn 0.6702 0.7090 -0.2193
vn 0.2676 0.9120 0.3108
vn 0.8476 0.5298 -0.0293
vn 0.7158 0.6641 0.2159
vn 0.8333 0.5475 -0.0762
vn 0.8737 0.4074 0.2657
vn 0.7284 0.5316 0.4322
vn 0.6945 0.3718 0.6159
vn 0.7287 0.3588 0.5833
vn 0.4300 0.2905 0.8548
vn 0.4948 0.0247 0.8687
vn 0.9435 0.3306 -0.0228
vn 0.9392 -0.0123 -0.3432
vn 0.8062 0.3759 0.4568
vn 0.7272 0.3375 0.5977
vn 0.8599 0.3324 0.3873
vn 0.6008 0.0371 0.7985
vn 0.6927 0.0963 0.7148
vn 0.4945 -0.5828 0.6449
vn 0.7120 -0.6082 0.3509
vn 0.9274 -0.2463 0.2815
vn 0.9550 -0.2286 0.1892
vn 0.8837 -0.3917 -0.2561
vn 0.9641 -0.2337 -0.1261
vn 0.0610 0.5732 0.8171
vn -0.1515 0.4670 0.8712
vn -0.0585 0.6182 0.7838
vn -0.2113 0.5699 0.7941
vn -0.2641 0.5840 0.7676
vn -0.5309 0.5056 0.6801
vn -0.3096 0.1008 0.9455
vn -0.2484 0.4504 0.8576
vn -0.2621 -0.1444 0.9542
vn 0.1753 -0.3203 0.9310
vn 0.1864 -0.1162 0.9756
vn -0.0705 -0.5567 0.8277
vn -0.2119 -0.0290 0.9769
vn -0.2034 -0.3321 0.9210
vn -0.5034 0.1711 0.8469
vn -0.3513 -0.7202 0.5983
vn -0.5322 0.1616 0.8311
vn -0.6504 -0.1865 0.7363
vt 0.130316 0.691587
vt 0.332848 0.770288
vt 0.169692 0.648347
vt 0.011521 0.655937
vt 0.000510 0.694218
vt 0.059539 0.800318
vt 0.444949 0.676991
vt 0.220813 0.850996
vt 0.105405 0.859231
vt 0.331092 0.960293
vt 0.303695 0.999616
vt 0.463321 0.831508
vt 0.528437 0.852943
vt 0.538960 0.767420
vt 0.566259 0.648347
vt 0.667527 0.176078
vt 0.710341 0.273915
vt 0.633537 0.289221
vt 0.651974 0.358086
vt 0.800208 0.142339
vt 0.781179 0.372709
vt 0.739168 0.552695
vt 0.943256 0.500981
vt 0.952212 0.573789
vt 0.825841 0.284198
vt 0.872941 0.377269
vt 0.999490 0.439617
vt 0.983965 0.374288
vt 0.999009 0.238354
vt 0.892745 0.179174
vt 0.937929 0.133359
vt 0.999490 0.151003
vt 0.055325 0.511497
vt 0.052497 0.618182
vt 0.097175 0.600595
vt 0.104023 0.449201
vt 0.068000 0.406556
vt 0.271490 0.514326
vt 0.169848 0.354096
vt 0.097102 0.360560
vt 0.239317 0.648347
vt 0.499222 0.519535
vt 0.514514 0.636129
vt 0.303298 0.421568
vt 0.330244 0.337048
vt 0.598449 0.561624
vt 0.475980 0.430800
vt 0.503287 0.337048
vt 0.562881 0.481997
vt 0.658002 0.464666
vt 0.616509 0.408812
vt 0.617414 0.356304
vt 0.680749 0.724602
vt 0.834541 0.572252
vt 0.879406 0.641112
vt 0.898945 0.583667
vt 0.934251 0.752524
vt 0.857479 0.697025
vt 0.754182 0.764801
vt 0.833237 0.823957
vt 0.849032 0.913214
vt 0.910473 0.870194
vt 0.934251 0.982940
vt 0.745421 0.993467
vt 0.681613 0.823236
vt 0.590645 0.777961
vt 0.718427 0.886648
vt 0.705778 0.963257
vt 0.671669 0.993321
vt 0.626193 0.939922
vt 0.512232 0.883945
vt 0.513141 0.218006
vt 0.522426 0.334202
vt 0.426058 0.335511
vt 0.377715 0.271987
vt 0.436974 0.124019
vt 0.301848 0.152145
vt 0.292800 0.258930
vt 0.210916 0.123486
vt 0.140081 0.186673
vt 0.357107 0.041913
vt 0.522426 0.000384
vt 0.409138 0.003430
vt 0.242757 0.022461
vt 0.151295 0.076080
vt 0.098259 0.071249
vt 0.065749 0.120944
s 0
usemtl Material_0
f 1/1/1 2/2/1 3/3/1
f 4/4/2 1/1/2 3/3/2
f 1/1/3 4/4/3 21/5/3
f 1/1/4 21/5/4 5/6/4
f 27/7/5 3/3/5 2/2/5
f 1/1/6 5/6/6 6/8/6
f 6/8/7 2/2/7 1/1/7
f 5/6/8 12/9/8 6/8/8
f 7/10/9 6/8/9 12/9/9
f 2/2/10 6/8/10 7/10/10
f 36/11/11 7/10/11 12/9/11
f 2/2/12 7/10/12 8/12/12
f 2/2/13 8/12/13 27/7/13
f 8/12/14 7/10/14 34/13/14
f 34/13/15 9/14/15 8/12/15
f 27/7/16 8/12/16 9/14/16
f 9/14/17 10/15/17 27/7/17
f 21/16/18 11/17/18 5/18/18
f 5/18/19 11/17/19 12/19/19
f 11/17/20 21/16/20 13/20/20
f 12/19/21 11/17/21 14/21/21
f 12/19/22 14/21/22 36/22/22
f 48/23/23 36/22/23 14/21/23
f 47/24/24 36/22/24 48/23/24
f 15/25/25 14/21/25 11/17/25
f 11/17/26 13/20/26 15/25/26
f 16/26/27 48/23/27 14/21/27
f 16/26/28 14/21/28 15/25/28
f 48/23/29 16/26/29 17/27/29
f 18/28/30 17/27/30 16/26/30
f 16/26/31 51/29/31 18/28/31
f 51/29/32 16/26/32 15/25/32
f 13/20/33 19/30/33 15/25/33
f 19/30/34 51/29/34 15/25/34
f 13/20/35 23/31/35 19/30/35
f 19/30/36 23/31/36 51/29/36
f 51/29/37 23/31/37 20/32/37
f 13/33/38 21/34/38 4/35/38
f 13/33/39 4/35/39 22/36/39
f 13/33/40 22/36/40 23/37/40
f 24/38/41 22/36/41 4/35/41
f 22/36/42 25/39/42 23/37/42
f 24/38/43 25/39/43 22/36/43
f 20/40/44 23/37/44 25/39/44
f 3/41/45 24/38/45 4/35/45
f 26/42/46 24/38/46 3/41/46
f 26/42/47 3/41/47 27/43/47
f 28/44/48 25/39/48 24/38/48
f 28/44/49 24/38/49 26/42/49
f 28/44/50 53/45/50 25/39/50
f 27/43/51 10/46/51 26/42/51
f 53/45/52 28/44/52 29/47/52
f 29/47/53 28/44/53 26/42/53
f 30/48/54 53/45/54 29/47/54
f 26/42/55 10/46/55 31/49/55
f 31/49/56 29/47/56 26/42/56
f 31/49/57 10/46/57 32/50/57
f 32/50/58 33/51/58 31/49/58
f 33/51/59 29/47/59 31/49/59
f 30/48/60 29/47/60 33/51/60
f 42/52/61 30/48/61 33/51/61
f 34/53/62 7/54/62 35/55/62
f 7/54/63 36/56/63 35/55/63
f 47/57/64 35/55/64 36/56/64
f 34/53/65 35/55/65 37/58/65
f 37/58/66 35/55/66 47/57/66
f 37/58/67 38/59/67 34/53/67
f 47/57/68 39/60/68 37/58/68
f 38/59/69 37/58/69 39/60/69
f 47/57/70 40/61/70 39/60/70
f 47/57/71 46/62/71 40/61/71
f 46/62/72 41/63/72 40/61/72
f 40/61/73 41/63/73 42/64/73
f 38/59/74 43/65/74 34/53/74
f 9/66/75 34/53/75 43/65/75
f 38/59/76 39/60/76 44/67/76
f 40/61/77 44/67/77 39/60/77
f 44/67/78 43/65/78 38/59/78
f 45/68/79 40/61/79 42/64/79
f 44/67/80 40/61/80 45/68/80
f 42/64/81 33/69/81 45/68/81
f 45/68/82 33/69/82 32/70/82
f 32/70/83 44/67/83 45/68/83
f 44/67/84 32/70/84 43/65/84
f 32/70/85 9/66/85 43/65/85
f 9/66/86 32/70/86 10/71/86
f 46/72/87 47/73/87 48/74/87
f 17/75/88 46/72/88 48/74/88
f 17/75/89 41/76/89 46/72/89
f 49/77/90 41/76/90 17/75/90
f 49/77/91 17/75/91 18/78/91
f 18/78/92 50/79/92 49/77/92
f 41/76/93 49/77/93 50/79/93
f 51/80/94 50/79/94 18/78/94
f 50/79/95 52/81/95 41/76/95
f 52/81/96 42/82/96 41/76/96
f 42/82/97 52/81/97 30/83/97
f 53/84/98 30/83/98 52/81/98
f 54/85/99 52/81/99 50/79/99
f 54/85/100 53/84/100 52/81/100
f 54/85/101 50/79/101 51/80/101
f 25/86/102 53/84/102 54/85/102
f 51/80/103 20/87/103 54/85/103
f 20/87/104 25/86/104 54/85/104
