# Blender 3.6.0
# www.blender.org
mtllib model.mtl
o Mesh_0
v 0.195853 -0.255144 -0.637622
v -0.157332 -0.504155 -0.670386
v -0.406292 -0.407198 -0.618732
v -0.410364 -0.605704 -0.535434
v -0.640278 -0.566723 -0.409417
v 0.274204 -0.598905 -0.580179
v 0.601939 -0.455860 -0.470001
v 0.437954 0.280760 -0.460998
v 0.046901 0.539072 -0.393058
v 0.317821 0.695272 -0.137813
v -0.004404 -0.779685 -0.321655
v 0.255905 -0.739686 -0.494470
v -0.268066 -0.617813 0.241351
v -0.693722 -0.261861 0.402992
v 0.091098 -0.678059 0.265886
v 0.368080 -0.744575 0.009180
v 0.826333 -0.366285 -0.231017
v 0.558311 -0.586284 -0.437046
v -0.454265 0.094964 -0.322974
v -0.146110 -0.091657 -0.657396
v -0.588570 0.158308 -0.033497
v -0.387047 0.263276 0.548242
v 0.451476 0.726568 0.149059
v -0.813798 -0.167801 -0.089948
v -0.638667 -0.643158 -0.212197
v -0.537430 -0.698892 -0.121427
v -0.733956 -0.000624 0.258166
v 0.765908 0.025965 -0.266392
v 0.520325 0.611757 -0.033814
v 0.831020 0.040700 -0.021001
v 0.611029 0.503663 0.055091
v 0.593381 0.506538 0.289218
v 0.736512 0.086575 0.228712
v 0.774840 -0.251697 0.085851
v 0.816091 -0.075487 0.076803
v 0.585909 0.466539 0.124816
v 0.479621 0.645022 0.288341
v -0.032873 0.507116 0.450092
v 0.276637 0.484564 0.473780
v -0.254307 -0.013500 0.632237
v -0.515494 -0.297005 0.472229
v 0.167054 -0.541730 0.501577
v 0.296740 0.098011 0.602365
v 0.702124 0.029247 0.327460
v 0.734834 -0.184216 0.303189
v 0.352606 -0.391743 0.549342
v 0.492070 -0.528705 0.384733
vn 0.0717 0.0294 -0.9970
vn -0.1895 0.0361 -0.9812
vn -0.3221 -0.3607 -0.8753
vn -0.4962 -0.3273 -0.8041
vn -0.0971 -0.6993 -0.7082
vn 0.0622 -0.5249 -0.8489
vn 0.1772 -0.1228 -0.9765
vn 0.4042 -0.5134 -0.7570
vn 0.4332 -0.3543 -0.8287
vn 0.3477 -0.0769 -0.9344
vn 0.7402 -0.3866 -0.5501
vn 0.7191 0.0483 -0.6933
vn 0.5833 0.1396 -0.8002
vn 0.4234 0.1053 -0.8998
vn 0.1694 0.2386 -0.9562
vn 0.0796 0.3645 -0.9278
vn 0.2991 0.6391 -0.7086
vn -0.1519 -0.8879 -0.4342
vn -0.2472 -0.9263 -0.2844
vn -0.3169 -0.8998 -0.2998
vn -0.1874 -0.9164 -0.3536
vn -0.0511 -0.9659 0.2538
vn -0.4396 -0.7501 0.4941
vn -0.3714 -0.7138 0.5938
vn -0.2770 -0.6928 0.6658
vn -0.1752 -0.8267 0.5347
vn -0.1752 -0.9649 0.1954
vn 0.1945 -0.8750 0.4434
vn -0.0681 -0.9812 0.1808
vn 0.1964 -0.8767 0.4391
vn 0.1271 -0.9912 -0.0379
vn 0.6811 -0.7090 0.1827
vn 0.4664 -0.8774 -0.1124
vn 0.6357 -0.7719 -0.0028
vn -0.7271 0.2078 -0.6544
vn -0.6708 0.3278 -0.6653
vn -0.5665 0.3774 -0.7326
vn -0.5097 0.4605 -0.7267
vn -0.6983 0.5596 -0.4464
vn -0.6309 0.6435 -0.4335
vn -0.8120 0.5765 -0.0906
vn -0.6488 0.7558 0.0884
vn -0.5582 0.8285 0.0439
vn -0.5209 0.8534 -0.0169
vn -0.4900 0.8716 -0.0133
vn -0.3735 0.9247 0.0731
vn -0.9413 -0.3172 -0.1152
vn -0.9143 -0.3757 0.1510
vn -0.6712 -0.6554 0.3462
vn -0.9723 -0.0206 0.2329
vn -0.7249 0.2453 0.6438
vn 0.6947 0.4975 -0.5194
vn 0.5465 0.6077 -0.5762
vn 0.4969 0.8069 -0.3195
vn 0.8521 0.4579 -0.2536
vn 0.9572 0.1239 -0.2614
vn 0.8383 0.4491 -0.3091
vn 0.9948 -0.0557 0.0857
vn 0.8160 0.3073 0.4896
vn 0.9500 -0.2106 0.2305
vn 0.8292 0.3110 0.4644
vn 0.3742 0.7559 0.5373
vn 0.8891 0.4551 0.0490
vn 0.8720 0.4651 -0.1528
vn 0.7546 0.6212 0.2112
vn 0.8849 -0.3732 0.2788
vn 0.8104 -0.4981 0.3086
vn 0.8956 0.2553 -0.3643
vn 0.9336 0.3361 -0.1242
vn 0.9848 0.0403 0.1688
vn 0.8684 0.2329 0.4377
vn 0.9207 0.0982 0.3776
vn 0.2078 0.0016 0.9782
vn -0.0678 0.8550 0.5142
vn 0.0046 0.7537 0.6572
vn -0.0387 0.4210 0.9062
vn 0.4477 0.3729 0.8127
vn 0.0091 0.2944 0.9556
vn -0.4785 0.0368 0.8773
vn -0.3846 -0.1589 0.9093
vn -0.1691 -0.3617 0.9168
vn 0.4644 0.3012 0.8328
vn -0.0123 0.3150 0.9490
vn 0.5729 0.1943 0.7962
vn 0.5603 -0.0083 0.8283
vn 0.0738 -0.0990 0.9923
vn 0.5517 -0.0273 0.8336
vn -0.0337 -0.2652 0.9636
vn 0.6188 -0.2606 0.7411
vn 0.2921 -0.5988 0.7457
vt 0.272426 0.770794
vt 0.154661 0.770159
vt 0.221150 0.871403
vt 0.107438 0.834404
vt 0.069737 0.776677
vt 0.000411 0.822718
vt 0.210169 0.627962
vt 0.237570 0.670731
vt 0.312656 0.612199
vt 0.339687 0.645098
vt 0.431023 0.612199
vt 0.475060 0.725899
vt 0.425045 0.855917
vt 0.387104 0.995714
vt 0.501643 0.999555
vt 0.606255 0.060509
vt 0.733625 0.000445
vt 0.535995 0.000445
vt 0.752803 0.137417
vt 0.797862 0.045394
vt 0.787171 0.110523
vt 0.666188 0.243869
vt 0.799096 0.352116
vt 0.742227 0.363758
vt 0.534595 0.316842
vt 0.564878 0.236238
vt 0.442447 0.268044
vt 0.500259 0.149257
vt 0.336483 0.077786
vt 0.436942 0.013522
vt 0.110048 0.552386
vt 0.045680 0.350532
vt 0.011915 0.455887
vt 0.179571 0.411744
vt 0.140450 0.275601
vt 0.332264 0.275601
vt 0.216535 0.507562
vt 0.210556 0.615761
vt 0.362954 0.607516
vt 0.449916 0.502262
vt 0.446613 0.278457
vt 0.520542 0.321832
vt 0.827855 0.251650
vt 0.860987 0.412734
vt 0.915873 0.383139
vt 0.951931 0.155943
vt 0.951931 0.373499
vt 0.865667 0.133130
vt 0.888748 0.005788
vt 0.820239 0.772310
vt 0.764585 0.648493
vt 0.906568 0.593307
vt 0.869845 0.532057
vt 0.958917 0.553389
vt 0.889382 0.783594
vt 0.814451 0.894102
vt 0.927134 0.636991
vt 0.913842 0.820069
vt 0.910554 0.875295
vt 0.948633 0.644556
vt 0.997531 0.637906
vt 0.999589 0.581037
vt 0.977380 0.864285
vt 0.999589 0.996883
vt 0.966195 0.775973
vt 0.995732 0.796044
vt 0.365242 0.151825
vt 0.320382 0.178540
vt 0.155711 0.151825
vt 0.727756 0.389534
vt 0.770337 0.365539
vt 0.770337 0.559494
vt 0.713125 0.486581
vt 0.759037 0.697470
vt 0.673678 0.380972
vt 0.669695 0.704344
vt 0.675657 0.874889
vt 0.635642 0.827019
vt 0.476548 0.677669
vt 0.618751 0.549049
vt 0.539261 0.427933
vt 0.477527 0.452282
vt 0.493865 0.605020
vt 0.426048 0.577979
s 0
usemtl Material_0
f 1/1/1 2/2/1 20/3/1
f 2/2/2 3/4/2 20/3/2
f 3/4/3 2/2/3 4/5/3
f 3/4/4 4/5/4 5/6/4
f 4/5/5 2/2/5 12/7/5
f 6/8/6 12/7/6 2/2/6
f 2/2/7 1/1/7 6/8/7
f 12/7/8 6/8/8 18/9/8
f 18/9/9 6/8/9 7/10/9
f 6/8/10 1/1/10 7/10/10
f 18/9/11 7/10/11 17/11/11
f 7/10/12 28/12/12 17/11/12
f 28/12/13 7/10/13 8/13/13
f 8/13/14 7/10/14 1/1/14
f 8/13/15 1/1/15 20/3/15
f 20/3/16 9/14/16 8/13/16
f 8/13/17 9/14/17 10/15/17
f 11/16/18 4/17/18 12/18/18
f 11/16/19 26/19/19 4/17/19
f 5/20/20 4/17/20 26/19/20
f 25/21/21 5/20/21 26/19/21
f 11/16/22 13/22/22 26/19/22
f 26/19/23 13/22/23 14/23/23
f 14/23/24 13/22/24 41/24/24
f 41/24/25 13/22/25 42/25/25
f 15/26/26 42/25/26 13/22/26
f 13/22/27 11/16/27 15/26/27
f 42/25/28 15/26/28 47/27/28
f 15/26/29 11/16/29 16/28/29
f 47/27/30 15/26/30 16/28/30
f 11/16/31 12/18/31 16/28/31
f 47/27/32 16/28/32 17/29/32
f 12/18/33 18/30/33 16/28/33
f 16/28/34 18/30/34 17/29/34
f 24/31/35 3/32/35 5/33/35
f 24/31/36 19/34/36 3/32/36
f 19/34/37 20/35/37 3/32/37
f 20/35/38 19/34/38 9/36/38
f 21/37/39 19/34/39 24/31/39
f 19/34/40 21/37/40 9/36/40
f 21/37/41 24/31/41 27/38/41
f 22/39/42 21/37/42 27/38/42
f 21/37/43 22/39/43 38/40/43
f 38/40/44 9/36/44 21/37/44
f 38/40/45 10/41/45 9/36/45
f 38/40/46 23/42/46 10/41/46
f 24/43/47 5/44/47 25/45/47
f 25/45/48 14/46/48 24/43/48
f 14/46/49 25/45/49 26/47/49
f 24/43/50 14/46/50 27/48/50
f 27/48/51 14/46/51 22/49/51
f 28/50/52 8/51/52 29/52/52
f 8/51/53 10/53/53 29/52/53
f 29/52/54 10/53/54 23/54/54
f 28/50/55 29/52/55 30/55/55
f 30/55/56 17/56/56 28/50/56
f 30/55/57 29/52/57 31/57/57
f 30/55/58 35/58/58 17/56/58
f 35/58/59 30/55/59 31/57/59
f 34/59/60 17/56/60 35/58/60
f 35/58/61 31/57/61 36/60/61
f 36/60/62 31/57/62 29/52/62
f 29/52/63 23/54/63 36/60/63
f 32/61/64 36/60/64 23/54/64
f 23/54/65 37/62/65 32/61/65
f 45/63/66 17/56/66 34/59/66
f 17/56/67 45/63/67 47/64/67
f 36/60/68 33/65/68 34/59/68
f 33/65/69 36/60/69 32/61/69
f 45/63/70 34/59/70 33/65/70
f 32/61/71 44/66/71 33/65/71
f 44/66/72 45/63/72 33/65/72
f 34/67/73 35/68/73 36/69/73
f 37/70/74 23/71/74 38/72/74
f 37/70/75 38/72/75 39/73/75
f 38/72/76 22/74/76 39/73/76
f 37/70/77 39/73/77 32/75/77
f 40/76/78 39/73/78 22/74/78
f 22/74/79 14/77/79 40/76/79
f 41/78/80 40/76/80 14/77/80
f 42/79/81 40/76/81 41/78/81
f 32/75/82 39/73/82 43/80/82
f 40/76/83 43/80/83 39/73/83
f 32/75/84 43/80/84 44/81/84
f 43/80/85 45/82/85 44/81/85
f 46/83/86 43/80/86 40/76/86
f 43/80/87 46/83/87 45/82/87
f 40/76/88 42/79/88 46/83/88
f 45/82/89 46/83/89 47/84/89
f 46/83/90 42/79/90 47/84/90
