# Blender 3.6.0
# www.blender.org
mtllib model.mtl
o Mesh_0
v 0.072440 0.255078 -0.683162
v 0.202920 0.139420 -0.668258
v -0.155309 -0.115054 -0.787763
v 0.310080 0.252756 -0.566693
v -0.346177 -0.344887 -0.748969
v -0.692832 -0.150396 -0.490254
v 0.020603 -0.447893 -0.621998
v 0.044737 -0.598721 -0.428880
v 0.331208 -0.605851 -0.241140
v 0.804001 -0.243986 0.165628
v -0.595770 -0.376279 -0.542918
v -0.296145 -0.508951 -0.581712
v -0.677182 -0.434225 -0.243808
v -0.066443 -0.728645 -0.035570
v -0.624637 -0.478620 0.040754
v -0.118495 -0.703642 0.076471
v 0.392076 -0.604879 0.101601
v 0.677162 -0.460275 -0.079664
v 0.777849 -0.395068 0.155770
v 0.641436 -0.364331 0.364328
v 0.459638 -0.121479 0.664856
v -0.074960 -0.260516 0.499205
v 0.306510 0.008479 0.748979
v 0.163291 0.391077 -0.492721
v -0.059409 0.481239 -0.257706
v -0.463506 0.495334 0.167745
v 0.235755 0.403715 -0.303651
v 0.400744 0.096702 -0.485885
v 0.488635 0.192518 -0.292507
v 0.712455 -0.050200 -0.092505
v 0.057729 0.550536 -0.046009
v 0.622360 0.081871 0.254847
v -0.088625 0.632677 0.410677
v 0.056133 0.472547 0.668526
v -0.068960 0.442436 0.696101
v 0.361033 0.164822 0.748121
v 0.671826 -0.070438 0.449971
v 0.782590 -0.327903 0.006652
v -0.736454 -0.230621 -0.137608
v -0.437614 -0.655523 -0.009070
v -0.704526 0.120454 -0.196123
v -0.559289 0.132667 -0.416729
v -0.677887 0.194194 -0.076817
v -0.651805 -0.040421 0.180026
v -0.447360 -0.166175 0.405520
v -0.451952 -0.561654 0.165278
v -0.432991 0.290612 0.450239
v -0.233552 0.600923 0.528582
v -0.218488 0.668098 0.381710
v 0.168151 0.233085 0.788745
vn 0.2277 0.1325 -0.9647
vn 0.4136 0.3588 -0.8368
vn -0.4185 0.4761 -0.7735
vn 0.6795 0.0149 -0.7335
vn -0.5331 0.3098 -0.7873
vn -0.3931 0.4004 -0.8277
vn -0.6274 -0.0892 -0.7736
vn -0.3910 -0.7128 -0.5822
vn 0.2216 -0.3384 -0.9146
vn 0.4376 -0.2048 -0.8756
vn 0.0463 -0.7062 -0.7065
vn 0.6258 -0.2524 -0.7380
vn 0.0719 -0.7817 -0.6195
vn -0.0958 -0.9368 -0.3365
vn 0.1536 -0.9504 -0.2705
vn 0.3751 -0.7072 -0.5992
vn 0.5316 -0.5359 -0.6558
vn 0.6152 -0.2419 -0.7503
vn 0.7235 -0.1347 -0.6771
vn 0.7785 -0.0273 -0.6271
vn 0.8268 -0.5223 -0.2089
vn 0.9849 -0.1676 -0.0442
vn -0.4187 -0.8635 -0.2812
vn -0.4506 -0.8318 -0.3242
vn -0.2049 -0.9349 -0.2899
vn -0.5960 -0.7265 0.3421
vn -0.1825 -0.9742 0.1326
vn -0.2487 -0.8612 0.4432
vn 0.1681 -0.9426 0.2885
vn 0.2731 -0.9609 -0.0458
vn 0.4149 -0.9071 -0.0711
vn 0.4729 -0.8802 0.0415
vn 0.1225 -0.7872 0.6044
vn 0.3990 -0.8328 0.3837
vn 0.7947 -0.2441 0.5558
vn 0.8458 -0.1792 0.5025
vn 0.7171 -0.2623 0.6458
vn 0.0856 -0.7490 0.6570
vn 0.7065 0.0378 0.7067
vn -0.0973 -0.6820 0.7249
vn -0.0459 -0.6872 0.7250
vn -0.3272 -0.4878 0.8093
vn 0.3897 -0.1309 0.9116
vn -0.0853 -0.6103 0.7876
vn -0.3135 -0.3682 0.8753
vn 0.1856 -0.0593 0.9808
vn -0.3192 -0.3524 0.8798
vn 0.3240 0.6900 -0.6473
vn -0.1948 0.8398 -0.5068
vn -0.3694 0.7682 -0.5228
vn -0.4218 0.7998 -0.4271
vn -0.3262 0.8824 -0.3390
vn 0.1256 0.9602 -0.2494
vn 0.5826 0.7650 -0.2744
vn 0.8717 0.4888 -0.0342
vn 0.5463 0.6247 -0.5579
vn 0.7981 0.3103 -0.5165
vn 0.4139 0.8839 -0.2177
vn -0.1828 0.9115 -0.3685
vn 0.6411 0.7675 -0.0015
vn 0.7553 0.6533 -0.0525
vn 0.6380 0.7700 0.0021
vn 0.2793 0.9566 -0.0825
vn 0.6193 0.7831 0.0576
vn 0.1341 0.8738 0.4674
vn 0.6248 0.7703 0.1276
vn 0.1876 0.8858 0.4244
vn -0.0189 0.7169 0.6969
vn 0.0784 0.4763 0.8758
vn 0.3533 0.5465 0.7593
vn 0.6609 0.7143 0.2300
vn 0.7383 0.6096 0.2886
vn 0.8808 0.4549 0.1318
vn 0.8779 0.4766 0.0465
vn 0.9621 0.1655 -0.2169
vn -0.9503 -0.1287 -0.2836
vn -0.9170 -0.3491 -0.1928
vn -0.6853 -0.7281 0.0129
vn -0.9346 -0.3348 0.1203
vn -0.9917 0.0725 -0.1062
vn -0.7474 0.4736 -0.4659
vn -0.5719 0.7487 -0.3351
vn -0.9823 0.1141 0.1488
vn -0.6114 0.7134 -0.3425
vn -0.9231 -0.1673 0.3462
vn -0.9748 0.1063 0.1961
vn -0.7815 -0.2325 0.5789
vn -0.6545 -0.3870 0.6495
vn -0.8863 0.2935 0.3581
vn -0.8742 0.3435 0.3433
vn -0.7514 -0.0408 0.6585
vn -0.8149 0.4239 0.3953
vn -0.6909 0.6816 0.2409
vn -0.6030 0.1921 0.7742
vn -0.5397 -0.0652 0.8393
vn -0.4603 -0.1329 0.8778
vt 0.714226 0.853503
vt 0.711719 0.795466
vt 0.838899 0.819474
vt 0.652427 0.785267
vt 0.877957 0.987691
vt 0.667876 0.719819
vt 0.918686 0.812360
vt 0.968376 0.941609
vt 0.997876 0.862406
vt 0.963340 0.758678
vt 0.873521 0.714432
vt 0.903236 0.651256
vt 0.997876 0.552898
vt 0.844394 0.559530
vt 0.730648 0.495617
vt 0.668817 0.480527
vt 0.617247 0.561761
vt 0.677377 0.421477
vt 0.620929 0.431002
vt 0.000425 0.843181
vt 0.068380 0.926412
vt 0.059353 0.759087
vt 0.189787 0.770112
vt 0.265244 0.866342
vt 0.165994 0.691198
vt 0.230529 0.722822
vt 0.276101 0.827943
vt 0.409481 0.905814
vt 0.342765 0.987230
vt 0.469381 0.999576
vt 0.536332 0.949876
vt 0.532825 0.873921
vt 0.616398 0.829858
vt 0.584537 0.940034
vt 0.564142 0.754657
vt 0.612005 0.674165
vt 0.406165 0.697950
vt 0.321453 0.613328
vt 0.564739 0.693593
vt 0.576778 0.613328
vt 0.215350 0.237192
vt 0.278023 0.282232
vt 0.300475 0.219873
vt 0.267202 0.381022
vt 0.076041 0.402342
vt 0.226586 0.554685
vt 0.338659 0.575623
vt 0.329335 0.313725
vt 0.360780 0.194822
vt 0.406771 0.251364
vt 0.524142 0.229335
vt 0.328478 0.417265
vt 0.554895 0.343729
vt 0.376201 0.554189
vt 0.475922 0.573199
vt 0.376049 0.611796
vt 0.468254 0.612479
vt 0.564048 0.568913
vt 0.594806 0.511242
vt 0.629992 0.363138
vt 0.627791 0.249927
vt 0.613151 0.194822
vt 0.772302 0.000424
vt 0.856648 0.058338
vt 0.832278 0.127054
vt 0.734405 0.071939
vt 0.931625 0.116011
vt 0.986350 0.051362
vt 0.748963 0.192405
vt 0.676720 0.158274
vt 0.759539 0.230023
vt 0.745531 0.362044
vt 0.859793 0.234743
vt 0.950535 0.275322
vt 0.999575 0.138839
vt 0.851792 0.375699
vt 0.811467 0.484161
vt 0.760851 0.476984
vt 0.897752 0.511234
vt 0.999575 0.530136
s 0
usemtl Material_0
f 1/1/1 2/2/1 3/3/1
f 4/4/2 2/2/2 1/1/2
f 1/1/3 3/3/3 42/5/3
f 2/2/4 4/4/4 28/6/4
f 42/5/5 3/3/5 5/7/5
f 5/7/6 6/8/6 42/5/6
f 6/8/7 5/7/7 11/9/7
f 11/9/8 5/7/8 12/10/8
f 5/7/9 3/3/9 7/11/9
f 7/11/10 3/3/10 2/2/10
f 12/10/11 5/7/11 7/11/11
f 2/2/12 28/6/12 7/11/12
f 7/11/13 8/12/13 12/10/13
f 8/12/14 14/13/14 12/10/14
f 14/13/15 8/12/15 9/14/15
f 8/12/16 7/11/16 9/14/16
f 9/14/17 7/11/17 18/15/17
f 7/11/18 28/6/18 18/15/18
f 28/6/19 38/16/19 18/15/19
f 28/6/20 30/17/20 38/16/20
f 19/18/21 18/15/21 38/16/21
f 38/16/22 10/19/22 19/18/22
f 11/20/23 12/21/23 13/22/23
f 13/22/24 12/21/24 40/23/24
f 14/24/25 40/23/25 12/21/25
f 15/25/26 40/23/26 46/26/26
f 16/27/27 40/23/27 14/24/27
f 46/26/28 40/23/28 16/27/28
f 14/24/29 17/28/29 16/27/29
f 14/24/30 9/29/30 17/28/30
f 9/29/31 18/30/31 17/28/31
f 18/30/32 19/31/32 17/28/32
f 16/27/33 17/28/33 20/32/33
f 17/28/34 19/31/34 20/32/34
f 19/31/35 37/33/35 20/32/35
f 19/31/36 10/34/36 37/33/36
f 21/35/37 20/32/37 37/33/37
f 21/35/38 16/27/38 20/32/38
f 21/35/39 37/33/39 36/36/39
f 46/26/40 16/27/40 22/37/40
f 16/27/41 21/35/41 22/37/41
f 45/38/42 46/26/42 22/37/42
f 21/35/43 36/36/43 23/39/43
f 23/39/44 22/37/44 21/35/44
f 45/38/45 22/37/45 23/39/45
f 23/39/46 36/36/46 50/40/46
f 45/38/47 23/39/47 50/40/47
f 1/41/48 24/42/48 4/43/48
f 1/41/49 25/44/49 24/42/49
f 25/44/50 1/41/50 42/45/50
f 42/45/51 26/46/51 25/44/51
f 26/46/52 49/47/52 25/44/52
f 24/42/53 25/44/53 49/47/53
f 24/42/54 27/48/54 4/43/54
f 28/49/55 4/43/55 27/48/55
f 28/49/56 27/48/56 29/50/56
f 29/50/57 30/51/57 28/49/57
f 24/42/58 31/52/58 27/48/58
f 24/42/59 49/47/59 31/52/59
f 29/50/60 27/48/60 32/53/60
f 32/53/61 30/51/61 29/50/61
f 31/52/62 32/53/62 27/48/62
f 31/52/63 49/47/63 33/54/63
f 31/52/64 33/54/64 32/53/64
f 33/54/65 49/47/65 34/55/65
f 33/54/66 34/55/66 32/53/66
f 49/47/67 48/56/67 34/55/67
f 35/57/68 34/55/68 48/56/68
f 35/57/69 50/58/69 34/55/69
f 50/58/70 36/59/70 34/55/70
f 32/53/71 34/55/71 36/59/71
f 32/53/72 36/59/72 37/60/72
f 32/53/73 37/60/73 10/61/73
f 10/61/74 30/51/74 32/53/74
f 38/62/75 30/51/75 10/61/75
f 11/63/76 13/64/76 39/65/76
f 6/66/77 11/63/77 39/65/77
f 15/67/78 13/64/78 40/68/78
f 39/65/79 13/64/79 15/67/79
f 39/65/80 41/69/80 6/66/80
f 42/70/81 6/66/81 41/69/81
f 41/69/82 43/71/82 42/70/82
f 39/65/83 43/71/83 41/69/83
f 43/71/84 26/72/84 42/70/84
f 39/65/85 15/67/85 44/73/85
f 44/73/86 43/71/86 39/65/86
f 45/74/87 44/73/87 15/67/87
f 46/75/88 45/74/88 15/67/88
f 43/71/89 44/73/89 47/76/89
f 43/71/90 47/76/90 26/72/90
f 45/74/91 47/76/91 44/73/91
f 26/72/92 47/76/92 48/77/92
f 49/78/93 26/72/93 48/77/93
f 47/76/94 35/79/94 48/77/94
f 35/79/95 47/76/95 45/74/95
f 50/80/96 35/79/96 45/74/96
