# Blender 3.6.0
# www.blender.org
mtllib model.mtl
o Mesh_0
v -0.005577 -0.510119 -0.358468
v 0.063698 -0.571579 -0.338351
v 0.214504 -0.582760 -0.282338
v -0.104107 -0.543194 -0.337896
v -0.190773 -0.492638 -0.307530
v 0.059354 -0.379421 -0.283266
v 0.168501 -0.536671 -0.324637
v -0.051723 -0.340527 -0.308458
v -0.162851 -0.390268 -0.251430
v -0.216329 -0.329216 -0.263546
v 0.106527 -0.304683 -0.293560
v 0.027118 -0.134239 -0.217923
v -0.073671 -0.067389 -0.247307
v -0.190467 0.061748 -0.106682
v 0.075618 -0.062004 -0.235529
v 0.099681 0.049417 -0.155079
v 0.203583 -0.082655 -0.161357
v 0.248838 -0.099475 -0.058945
v 0.186106 0.023528 -0.071792
v 0.181034 0.038693 0.009340
v 0.241806 -0.053164 0.019196
v -0.241516 -0.529088 -0.249939
v 0.092086 -0.590852 -0.125088
v 0.212374 -0.598259 -0.141821
v 0.325536 -0.568320 -0.147677
v 0.230288 -0.552528 0.220987
v 0.292713 -0.520212 0.189300
v 0.065627 -0.551173 0.338843
v 0.118391 -0.617102 -0.038274
v 0.036049 -0.505488 0.356608
v -0.100306 -0.551916 0.329623
v -0.137051 -0.514480 0.330669
v -0.159962 -0.571020 0.262850
v -0.304571 -0.544868 0.131672
v 0.302832 -0.535268 -0.198416
v 0.207248 -0.372155 -0.188614
v 0.247460 -0.348644 -0.087208
v 0.356344 -0.521067 -0.005300
v 0.341749 -0.560869 0.025036
v 0.265063 -0.370295 0.049171
v 0.184211 -0.299526 -0.237599
v 0.257999 -0.291583 -0.128051
v 0.048195 -0.765687 -0.183486
v -0.055484 -0.918993 -0.233582
v -0.201031 -0.933147 -0.160721
v -0.221949 -0.117930 -0.093462
v -0.246225 -0.383124 -0.186331
v -0.323972 -0.309356 0.032234
v -0.233362 -0.136917 0.052017
v -0.234541 -0.315379 0.210831
v -0.129299 0.103148 -0.195598
v -0.043259 0.142693 -0.210991
v 0.156781 0.105553 -0.142068
v -0.065906 0.273589 -0.131085
v 0.043593 0.340019 -0.151235
v -0.128555 0.346731 -0.114994
v -0.014327 0.710640 -0.001073
v 0.015281 0.089128 -0.217728
v -0.089202 0.068428 -0.185167
v 0.090501 -0.907264 -0.214678
v 0.105487 -0.955549 -0.171764
v 0.198670 -0.898581 -0.099852
v -0.019685 -0.932562 0.217846
v -0.137189 -0.119282 -0.195644
v -0.212604 -0.062455 -0.176625
v -0.275625 -0.069496 0.039267
v -0.167072 -0.088692 0.217116
v 0.132436 0.051119 0.131814
v 0.123142 0.286660 -0.039448
v 0.112248 0.311889 0.084419
v 0.065663 0.236753 -0.151634
v 0.142067 0.339730 -0.014052
v -0.042611 -0.596854 -0.142796
v -0.147271 -0.743923 -0.134140
v -0.140327 -0.592941 -0.066598
v -0.248120 -0.911784 0.000904
v -0.138394 -0.787361 0.139765
v -0.316052 -0.306348 -0.122131
v -0.294956 -0.388336 0.033288
v -0.125276 -0.370842 0.253554
v -0.261834 -0.043913 -0.079723
v -0.321653 -0.523838 -0.097165
v -0.316434 -0.467607 -0.162756
v -0.154934 0.286118 -0.066872
v -0.220908 0.129750 -0.095143
v -0.151134 0.298874 0.043851
v -0.174507 0.352207 -0.011455
v -0.145920 0.111897 0.186222
v -0.229052 0.127014 0.045902
v -0.203303 0.064329 0.025822
v -0.140063 0.064024 0.138010
v 0.204266 -0.943091 0.083705
v 0.202486 -0.110100 0.078094
v 0.181809 -0.172785 -0.154648
v -0.002937 0.346447 0.144432
v -0.127455 0.347736 0.089497
v 0.164022 0.104581 0.138274
v 0.199774 0.118119 0.056446
v 0.018893 0.107887 0.211788
v 0.285433 -0.299089 0.095028
v 0.173211 -0.080278 0.180198
v -0.017583 0.056576 0.175315
v 0.080192 -0.164114 0.200661
v 0.053105 -0.101035 0.259925
v -0.040339 -0.171656 0.216724
v 0.016957 -0.599762 0.126540
v 0.091184 -0.599025 0.093560
v -0.097183 -0.581002 0.090569
v 0.103901 -0.897333 0.188478
v -0.201591 -0.899609 0.135727
v -0.171801 -0.955886 0.109538
v 0.197131 -0.286965 0.210709
v 0.138503 -0.382824 0.239310
v 0.004582 -0.276596 0.284836
v -0.181426 -0.132668 0.154389
v -0.352992 -0.495234 0.042285
v -0.281288 -0.504708 0.215926
v 0.201401 -0.494408 0.277097
vn -0.0663 -0.3771 -0.9238
vn 0.1704 -0.1277 -0.9771
vn 0.2715 -0.4895 -0.8287
vn -0.2493 0.1475 -0.9571
vn -0.5153 -0.4424 -0.7340
vn -0.7541 0.0123 -0.6567
vn -0.1829 0.5104 -0.8403
vn -0.1449 0.5465 -0.8248
vn 0.2330 0.3955 -0.8884
vn -0.4988 0.5172 -0.6955
vn -0.6671 0.3747 -0.6438
vn -0.7807 0.6044 -0.1589
vn -0.8783 0.4690 -0.0934
vn -0.0717 -0.6783 -0.7313
vn -0.2664 -0.4067 -0.8738
vn 0.2636 0.1341 -0.9553
vn -0.2201 0.3743 -0.9008
vn -0.0175 0.4488 -0.8935
vn 0.4902 0.4838 -0.7250
vn 0.7592 0.3665 -0.5379
vn 0.8473 0.5240 -0.0866
vn -0.0920 0.3678 -0.9254
vn 0.4310 0.5261 -0.7331
vn -0.1170 0.1721 -0.9781
vn -0.3235 -0.7445 -0.5840
vn -0.3772 0.5046 -0.7766
vn -0.6003 0.2750 -0.7511
vn 0.0857 -0.2898 -0.9532
vn 0.0563 0.4207 -0.9055
vn 0.2631 -0.3916 -0.8817
vn 0.1851 0.5487 -0.8153
vn 0.4717 -0.1783 -0.8635
vn 0.5035 0.4317 -0.7484
vn 0.8721 -0.2423 -0.4252
vn 0.6609 0.5445 -0.5165
vn 0.8589 0.4054 -0.3130
vn 0.4080 0.9017 -0.1430
vn 0.8842 0.4325 -0.1767
vn 0.8354 0.5473 -0.0501
vn -0.1662 -0.9808 -0.1023
vn -0.8147 -0.4066 -0.4134
vn -0.1505 -0.9876 -0.0450
vn -0.2851 -0.9186 -0.2737
vn 0.0571 -0.9936 -0.0974
vn -0.2887 -0.9009 -0.3240
vn -0.3760 -0.9104 0.1724
vn -0.0724 -0.9941 -0.0802
vn -0.0328 -0.9934 -0.1101
vn 0.2495 -0.9630 -0.1024
vn 0.2566 -0.9664 0.0176
vn -0.0433 -0.9909 0.1270
vn 0.1329 -0.9841 0.1175
vn 0.5652 -0.7455 0.3532
vn 0.5718 -0.4048 0.7136
vn 0.5184 -0.4465 0.7294
vn 0.1265 -0.9740 0.1880
vn 0.4818 -0.8493 0.2159
vn 0.0987 -0.9747 0.2004
vn -0.2380 -0.9335 0.2682
vn 0.4360 -0.0667 0.8975
vn -0.0494 -0.3896 0.9197
vn -0.1379 -0.1627 0.9770
vn -0.5424 -0.5501 0.6350
vn -0.0115 -0.9586 0.2845
vn 0.0607 -0.9950 0.0798
vn -0.5439 -0.5416 0.6409
vn -0.2262 -0.9737 -0.0260
vn -0.5564 -0.6798 0.4778
vn -0.1036 -0.9911 -0.0833
vn -0.9034 -0.2323 0.3604
vn -0.7043 -0.7098 -0.0127
vn 0.6846 0.0145 -0.7288
vn 0.7368 -0.3662 -0.5683
vn 0.6237 0.4056 -0.6682
vn 0.4476 0.5049 -0.7381
vn 0.7729 0.4780 -0.4173
vn 0.9358 0.2199 -0.2755
vn 0.8668 0.4186 -0.2710
vn 0.9184 -0.3896 -0.0694
vn 0.8509 0.5247 -0.0265
vn 0.9445 -0.1106 0.3093
vn 0.8627 0.4210 0.2802
vn 0.2359 -0.9415 -0.2407
vn 0.5152 -0.3609 -0.7774
vn 0.8281 -0.1082 -0.5500
vn 0.8932 -0.3589 -0.2710
vn 0.9409 -0.2941 -0.1681
vn 0.9723 -0.1969 -0.1262
vn 0.7342 -0.5034 0.4555
vn 0.1053 0.2439 -0.9641
vn 0.6700 0.3450 -0.6573
vn 0.6665 0.3357 -0.6657
vn -0.1794 0.4131 -0.8928
vn -0.4528 0.2489 -0.8562
vn 0.9378 -0.1276 -0.3228
vn -0.1917 0.3539 -0.9154
vn 0.9152 -0.2134 -0.3418
vn 0.1355 -0.1540 -0.9787
vn -0.6864 0.4448 -0.5753
vn -0.5295 -0.5856 -0.6138
vn -0.8024 -0.2967 -0.5178
vn -0.7008 0.4359 -0.5647
vn -0.8918 0.4510 -0.0370
vn -0.8848 0.4659 -0.0086
vn -0.8209 0.3827 0.4239
vn -0.8350 0.3689 0.4083
vn -0.8294 -0.3502 0.4353
vn -0.1555 -0.0458 -0.9868
vn 0.4770 -0.2932 -0.8285
vn 0.4360 0.2396 -0.8675
vn 0.2059 0.3405 -0.9174
vn 0.0132 0.5227 -0.8524
vn -0.3511 0.4429 -0.8250
vn -0.1627 -0.0310 -0.9862
vn -0.2043 0.0401 -0.9781
vn -0.1805 0.3450 -0.9211
vn -0.5817 -0.3352 -0.7411
vn -0.4757 0.4606 -0.7494
vn -0.6280 0.3870 -0.6752
vn -0.7487 -0.2296 -0.6219
vn -0.1778 -0.4658 -0.8668
vn 0.0004 -0.8444 -0.5357
vn -0.4250 -0.6728 -0.6056
vn 0.1493 -0.6306 -0.7616
vn 0.6964 -0.3438 -0.6300
vn -0.0808 -0.9358 -0.3431
vn 0.6199 -0.7581 -0.2027
vn -0.0700 -0.9947 0.0756
vn 0.0279 -0.9958 -0.0868
vn -0.4760 -0.8791 -0.0225
vn -0.7699 -0.5545 0.3158
vn 0.0440 -0.9876 0.1509
vn 0.3476 -0.6904 0.6345
vn -0.6002 -0.6327 -0.4895
vn -0.8486 -0.3911 -0.3563
vn -0.8828 -0.4519 -0.1282
vn -0.8096 -0.5475 -0.2116
vn -0.7957 -0.4154 0.4408
vn 0.6907 -0.6141 -0.3818
vn 0.9730 -0.1087 -0.2038
vn 0.8299 -0.4162 0.3715
vn 0.9291 0.2972 -0.2200
vn 0.9111 0.4121 -0.0038
vn 0.7005 0.4459 -0.5572
vn 0.9028 -0.3988 0.1606
vn 0.8401 0.1815 -0.5112
vn 0.8123 -0.0106 -0.5831
vn 0.7639 0.3413 -0.5477
vn -0.5651 0.3584 -0.7431
vn -0.8923 0.2179 -0.3954
vn -0.9046 0.2996 -0.3032
vn -0.9083 0.3542 0.2224
vn -0.8588 0.2746 0.4325
vn -0.8475 0.4681 0.2502
vn -0.8004 -0.5682 -0.1911
vn -0.9370 -0.3450 -0.0548
vn -0.8547 -0.3084 0.4176
vn -0.5387 -0.6989 0.4705
vn -0.7809 0.4064 -0.4745
vn -0.8359 0.5412 -0.0915
vn -0.8797 0.4755 0.0003
vn -0.7398 0.4501 0.5001
vn -0.8059 0.3784 0.4553
vn -0.2289 0.4794 0.8472
vn -0.1513 0.4140 0.8976
vn -0.1982 -0.3072 0.9308
vn -0.4449 -0.6823 0.5801
vn -0.9725 -0.1329 -0.1913
vn -0.9204 0.3908 -0.0134
vn -0.9207 0.3901 -0.0133
vn -0.7284 -0.6205 -0.2905
vn -0.8359 0.3849 -0.3913
vn -0.8384 0.3629 0.4068
vn -0.9048 0.0427 0.4236
vn -0.9398 0.1901 0.2840
vn -0.9101 0.4121 -0.0446
vn -0.7845 0.3617 0.5037
vn -0.9148 -0.3993 -0.0606
vn -0.9309 -0.3557 -0.0833
vn -0.7862 -0.4564 0.4166
vn -0.7476 -0.5145 0.4200
vn 0.9631 0.2669 0.0354
vn 0.9402 0.3047 0.1523
vn 0.7510 0.2291 0.6193
vn 0.6232 -0.7673 0.1513
vn 0.8638 0.3516 0.3610
vn 0.5123 0.3324 0.7919
vn -0.3777 0.3333 0.8639
vn -0.3706 0.3771 0.8488
vn 0.5124 0.3335 0.7913
vn 0.8470 0.3215 0.4233
vn 0.8141 -0.5137 0.2707
vn 0.4387 0.2811 0.8535
vn 0.4173 -0.3480 0.8395
vn -0.1420 0.2569 0.9559
vn 0.1885 -0.6545 0.7322
vn -0.1444 -0.5030 0.8521
vn -0.2461 -0.7026 0.6677
vn 0.9061 0.3813 -0.1832
vn 0.7927 0.5522 0.2585
vn 0.8143 0.4056 0.4152
vn 0.2682 0.4051 0.8741
vn 0.3864 0.5648 0.7292
vn 0.9421 -0.1313 0.3085
vn 0.8708 -0.3845 0.3063
vn 0.6642 -0.6445 0.3787
vn 0.5490 -0.4349 0.7138
vn 0.1405 -0.6452 0.7510
vn 0.3938 -0.2641 0.8804
vn -0.2485 0.2713 0.9299
vn -0.0550 0.3006 0.9522
vn 0.0587 0.5096 0.8584
vn -0.3775 0.1799 0.9084
vn -0.4235 -0.5567 0.7146
vn 0.7543 0.3791 0.5360
vn 0.7491 -0.2788 0.6010
vn 0.3235 0.5614 0.7617
vn 0.3614 0.0567 0.9307
vn 0.6887 0.0766 0.7210
vn 0.0342 -0.3570 0.9335
vn 0.0741 0.5651 0.8217
vn -0.3106 0.1148 0.9436
vn -0.2552 0.4472 0.8573
vn -0.3288 0.3647 0.8712
vn -0.6611 0.6832 0.3103
vn -0.7281 0.4396 0.5260
vn -0.5436 0.4312 0.7201
vn -0.1544 0.4771 0.8652
vn 0.0704 0.6581 0.7497
vn 0.3558 0.4734 0.8058
vn 0.6557 0.5461 0.5214
vn 0.6651 0.5717 0.4804
vt 0.939296 0.843383
vt 0.966379 0.880802
vt 0.967099 0.801107
vt 0.942229 0.928650
vt 0.967099 0.956133
vt 0.003908 0.584389
vt 0.023695 0.540103
vt 0.031174 0.628329
vt 0.003244 0.506189
vt 0.037414 0.452177
vt 0.083726 0.534262
vt 0.115385 0.635853
vt 0.055167 0.709966
vt 0.084524 0.483550
vt 0.115385 0.380242
vt 0.058612 0.353918
vt 0.466193 0.712640
vt 0.408525 0.738075
vt 0.532731 0.733536
vt 0.553753 0.694615
vt 0.332414 0.697448
vt 0.498477 0.590647
vt 0.382809 0.704103
vt 0.322185 0.617938
vt 0.260019 0.671677
vt 0.139481 0.607633
vt 0.413849 0.608212
vt 0.531616 0.560346
vt 0.457590 0.569389
vt 0.525015 0.494463
vt 0.461288 0.504968
vt 0.392067 0.573001
vt 0.368604 0.516724
vt 0.324604 0.577169
vt 0.272011 0.571611
vt 0.309051 0.519967
vt 0.280288 0.494463
vt 0.247911 0.536141
vt 0.060195 0.709990
vt 0.008416 0.771513
vt 0.000463 0.852007
vt 0.142610 0.678601
vt 0.101969 0.661414
vt 0.107737 0.811648
vt 0.110107 0.874894
vt 0.150888 0.769967
vt 0.228541 0.792524
vt 0.097710 0.931801
vt 0.023395 0.928221
vt 0.091232 0.988309
vt 0.183877 0.999574
vt 0.289681 0.948429
vt 0.277397 0.983999
vt 0.334517 0.946213
vt 0.348971 0.872505
vt 0.156770 0.893824
vt 0.223707 0.881329
vt 0.241100 0.847057
vt 0.376738 0.863650
vt 0.349871 0.796940
vt 0.363657 0.775753
vt 0.306060 0.700618
vt 0.315957 0.768884
vt 0.256859 0.698088
vt 0.216226 0.661414
vt 0.262283 0.164328
vt 0.326345 0.181005
vt 0.355623 0.154946
vt 0.234114 0.180519
vt 0.282230 0.077737
vt 0.371177 0.063458
vt 0.226320 0.065063
vt 0.162846 0.149188
vt 0.142436 0.164381
vt 0.154663 0.063458
vt 0.065338 0.116160
vt 0.021779 0.753407
vt 0.021779 0.635860
vt 0.004171 0.710990
vt 0.942576 0.674155
vt 0.968026 0.753407
vt 0.909627 0.704080
vt 0.895737 0.643185
vt 0.925482 0.624092
vt 0.934373 0.559148
vt 0.896615 0.537440
vt 0.968026 0.456133
vt 0.231112 0.426513
vt 0.230128 0.498274
vt 0.303386 0.488704
vt 0.150828 0.498722
vt 0.145281 0.358435
vt 0.326660 0.387348
vt 0.382298 0.464907
vt 0.190114 0.344728
vt 0.002317 0.331772
vt 0.257632 0.331772
vt 0.671475 0.226200
vt 0.608031 0.248296
vt 0.563777 0.145915
vt 0.592544 0.107751
vt 0.538925 0.114848
vt 0.650837 0.128113
vt 0.729464 0.121126
vt 0.745072 0.212031
vt 0.830862 0.132151
vt 0.802799 0.221796
vt 0.830862 0.247789
vt 0.651009 0.444238
vt 0.617110 0.475381
vt 0.629428 0.510522
vt 0.576490 0.569421
vt 0.617780 0.562688
vt 0.542849 0.500173
vt 0.550461 0.434058
vt 0.497829 0.473730
vt 0.521627 0.395276
vt 0.321131 0.379472
vt 0.558616 0.381524
vt 0.646378 0.379472
vt 0.679796 0.396969
vt 0.881819 0.762777
vt 0.803788 0.760203
vt 0.861001 0.748099
vt 0.764133 0.718484
vt 0.920760 0.718484
vt 0.783535 0.771188
vt 0.864309 0.769591
vt 0.866871 0.799389
vt 0.927247 0.823304
vt 0.711600 0.812995
vt 0.927247 0.914450
vt 0.736000 0.939659
vt 0.688137 0.890306
vt 0.705473 0.956100
vt 0.818249 0.985945
vt 0.884622 0.974517
vt 0.465709 0.770443
vt 0.448647 0.830934
vt 0.421660 0.790728
vt 0.406395 0.840692
vt 0.460788 0.899296
vt 0.419654 0.897042
vt 0.465709 0.985945
vt 0.725014 0.253407
vt 0.686682 0.269286
vt 0.724487 0.341200
vt 0.683956 0.366398
vt 0.731696 0.404174
vt 0.589151 0.316778
vt 0.574497 0.376214
vt 0.606768 0.253407
vt 0.560804 0.330590
vt 0.553368 0.253793
vt 0.361909 0.309569
vt 0.541705 0.014055
vt 0.523386 0.097232
vt 0.480586 0.030101
vt 0.454676 0.189523
vt 0.541705 0.188912
vt 0.397274 0.021729
vt 0.373031 0.120741
vt 0.381896 0.180706
vt 0.342113 0.060203
vt 0.373031 0.009796
vt 0.259415 0.026157
vt 0.263373 0.066014
vt 0.161817 0.056256
vt 0.118165 0.009796
vt 0.849301 0.195276
vt 0.916126 0.166525
vt 0.911108 0.218216
vt 0.839940 0.257352
vt 0.915435 0.275731
vt 0.878828 0.368275
vt 0.813313 0.312793
vt 0.770621 0.358618
vt 0.799856 0.445060
vt 0.863248 0.438114
vt 0.916126 0.381206
vt 0.448169 0.364991
vt 0.377665 0.341993
vt 0.485171 0.341993
vt 0.320949 0.205051
vt 0.229813 0.188567
vt 0.326293 0.259309
vt 0.356844 0.183560
vt 0.353430 0.234258
vt 0.546339 0.242295
vt 0.355490 0.283342
vt 0.230614 0.334327
vt 0.227850 0.256126
vt 0.187674 0.183560
vt 0.191935 0.252118
vt 0.198105 0.317110
vt 0.028930 0.182709
vt 0.188601 0.271547
vt 0.184734 0.182709
vt 0.002317 0.242817
vt 0.139249 0.321550
vt 0.170349 0.589864
vt 0.106117 0.554940
vt 0.230306 0.554940
vt 0.493884 0.802321
vt 0.615439 0.642675
vt 0.536382 0.836015
vt 0.605478 0.830895
vt 0.675162 0.823303
vt 0.674646 0.943903
vt 0.513915 0.935916
vt 0.472196 0.920047
vt 0.518961 0.965097
vt 0.591735 0.943221
vt 0.604899 0.973812
vt 0.675162 0.978279
vt 0.999537 0.192930
vt 0.999537 0.052385
vt 0.914272 0.135004
vt 0.631837 0.024668
vt 0.545412 0.057274
vt 0.567531 0.008444
vt 0.630624 0.093032
vt 0.705746 0.000426
vt 0.705746 0.094123
vt 0.973587 0.428876
vt 0.914272 0.323578
vt 0.949792 0.364156
vt 0.934669 0.404811
vt 0.958012 0.279138
vt 0.919264 0.255193
vt 0.973587 0.223595
vt 0.729039 0.044641
vt 0.824900 0.118369
vt 0.730658 0.006388
vt 0.715941 0.100445
vt 0.891125 0.006388
vt 0.911695 0.065562
vt 0.877179 0.155451
vt 0.912419 0.154250
vt 0.903151 0.481850
vt 0.797362 0.513712
vt 0.802308 0.445911
vt 0.747451 0.543149
vt 0.807019 0.605595
vt 0.871004 0.561783
vt 0.764639 0.671470
vt 0.871366 0.622384
vt 0.804482 0.724446
vt 0.903151 0.695099
vt 0.709592 0.646768
vt 0.723152 0.803663
vt 0.662562 0.735010
vt 0.769694 0.765542
vt 0.626581 0.654769
vt 0.621409 0.572468
vt 0.706818 0.522411
vt 0.648592 0.489714
vt 0.663969 0.430579
vt 0.769694 0.431731
s 0
usemtl Material_0
f 1/1/1 2/2/1 4/3/1
f 7/4/2 2/2/2 1/1/2
f 7/4/3 3/5/3 2/2/3
f 4/6/4 5/7/4 1/8/4
f 4/6/5 22/9/5 5/7/5
f 5/7/6 22/9/6 83/10/6
f 9/11/7 1/8/7 5/7/7
f 9/11/8 6/12/8 1/8/8
f 1/8/9 6/12/9 7/13/9
f 5/7/10 47/14/10 9/11/10
f 47/14/11 5/7/11 83/10/11
f 47/14/12 83/10/12 79/15/12
f 116/16/13 79/15/13 83/10/13
f 8/17/14 6/18/14 9/19/14
f 10/20/15 8/17/15 9/19/15
f 41/21/16 6/18/16 8/17/16
f 10/20/17 64/22/17 8/17/17
f 8/17/18 64/22/18 11/23/18
f 94/24/19 41/21/19 11/23/19
f 94/24/20 42/25/20 41/21/20
f 42/25/21 94/24/21 100/26/21
f 11/23/22 64/22/22 12/27/22
f 94/24/23 11/23/23 12/27/23
f 12/27/24 64/22/24 65/28/24
f 65/28/25 13/29/25 12/27/25
f 13/29/26 65/28/26 14/30/26
f 59/31/27 13/29/27 14/30/27
f 12/27/28 13/29/28 15/32/28
f 13/29/29 59/31/29 15/32/29
f 94/24/30 12/27/30 15/32/30
f 15/32/31 59/31/31 16/33/31
f 17/34/32 94/24/32 15/32/32
f 16/33/33 17/34/33 15/32/33
f 17/34/34 18/35/34 94/24/34
f 19/36/35 17/34/35 16/33/35
f 18/35/36 17/34/36 19/36/36
f 16/33/37 20/37/37 19/36/37
f 19/36/38 21/38/38 18/35/38
f 19/36/39 20/37/39 21/38/39
f 22/39/40 4/40/40 2/41/40
f 82/42/41 83/43/41 22/39/41
f 2/41/42 82/42/42 22/39/42
f 82/42/43 2/41/43 73/44/43
f 23/45/44 73/44/44 2/41/44
f 75/46/45 82/42/45 73/44/45
f 82/42/46 75/46/46 108/47/46
f 24/48/47 23/45/47 2/41/47
f 2/41/48 3/49/48 24/48/48
f 25/50/49 24/48/49 3/49/49
f 39/51/50 24/48/50 25/50/50
f 23/45/51 24/48/51 26/52/51
f 24/48/52 39/51/52 26/52/52
f 27/53/53 26/52/53 39/51/53
f 26/52/54 27/53/54 118/54/54
f 26/52/55 118/54/55 28/55/55
f 28/55/56 29/56/56 26/52/56
f 28/55/57 107/57/57 29/56/57
f 28/55/58 106/58/58 107/57/58
f 106/58/59 28/55/59 108/47/59
f 28/55/60 118/54/60 30/59/60
f 31/60/61 28/55/61 30/59/61
f 32/61/62 31/60/62 30/59/62
f 117/62/63 31/60/63 32/61/63
f 28/55/64 31/60/64 33/63/64
f 33/63/65 108/47/65 28/55/65
f 117/62/66 33/63/66 31/60/66
f 108/47/67 33/63/67 82/42/67
f 117/62/68 34/64/68 33/63/68
f 33/63/69 34/64/69 82/42/69
f 117/62/70 116/65/70 34/64/70
f 34/64/71 116/65/71 82/42/71
f 35/66/72 3/67/72 7/68/72
f 3/67/73 35/66/73 25/69/73
f 36/70/74 35/66/74 7/68/74
f 36/70/75 7/68/75 6/71/75
f 37/72/76 35/66/76 36/70/76
f 35/66/77 38/73/77 25/69/77
f 38/73/78 35/66/78 37/72/78
f 38/73/79 39/74/79 25/69/79
f 38/73/80 37/72/80 40/75/80
f 27/76/81 39/74/81 38/73/81
f 40/75/82 27/76/82 38/73/82
f 41/77/83 8/78/83 11/79/83
f 36/80/84 6/81/84 41/82/84
f 41/82/85 42/83/85 36/80/85
f 42/83/86 37/84/86 36/80/86
f 42/83/87 40/85/87 37/84/87
f 42/83/88 100/86/88 40/85/88
f 113/87/89 40/85/89 100/86/89
f 43/88/90 60/89/90 44/90/90
f 62/91/91 60/89/91 43/88/91
f 43/88/92 29/92/92 62/91/92
f 44/90/93 74/93/93 43/88/93
f 74/93/94 44/90/94 45/94/94
f 23/95/95 29/92/95 43/88/95
f 74/93/96 23/95/96 43/88/96
f 23/95/97 26/96/97 29/92/97
f 74/93/98 73/97/98 23/95/98
f 46/98/99 64/99/99 10/100/99
f 47/101/100 10/100/100 9/102/100
f 10/100/101 47/101/101 78/103/101
f 78/103/102 46/98/102 10/100/102
f 46/98/103 78/103/103 48/104/103
f 46/98/104 48/104/104 49/105/104
f 49/105/105 48/104/105 50/106/105
f 115/107/106 49/105/106 50/106/106
f 115/107/107 67/108/107 49/105/107
f 51/109/108 52/110/108 58/111/108
f 53/112/109 16/113/109 58/111/109
f 71/114/110 53/112/110 58/111/110
f 52/110/111 71/114/111 58/111/111
f 52/110/112 54/115/112 71/114/112
f 52/110/113 51/109/113 54/115/113
f 55/116/114 71/114/114 54/115/114
f 56/117/115 55/116/115 54/115/115
f 57/118/116 55/116/116 56/117/116
f 56/117/117 54/115/117 84/119/117
f 84/119/118 54/115/118 51/109/118
f 51/109/119 85/120/119 84/119/119
f 14/121/120 85/120/120 51/109/120
f 51/122/121 58/123/121 59/124/121
f 16/125/122 59/124/122 58/123/122
f 59/124/123 14/126/123 51/122/123
f 44/127/124 60/128/124 61/129/124
f 60/128/125 62/130/125 61/129/125
f 45/131/126 44/127/126 61/129/126
f 92/132/127 61/129/127 62/130/127
f 92/132/128 45/131/128 61/129/128
f 111/133/129 45/131/129 92/132/129
f 76/134/130 45/131/130 111/133/130
f 110/135/131 76/134/131 111/133/131
f 63/136/132 111/133/132 92/132/132
f 92/132/133 109/137/133 63/136/133
f 64/138/134 46/139/134 65/140/134
f 81/141/135 65/140/135 46/139/135
f 81/141/136 46/139/136 49/142/136
f 81/141/137 49/142/137 66/143/137
f 49/142/138 67/144/138 66/143/138
f 16/145/139 53/146/139 20/147/139
f 20/147/140 53/146/140 98/148/140
f 98/148/141 68/149/141 20/147/141
f 69/150/142 98/148/142 53/146/142
f 98/148/143 69/150/143 70/151/143
f 53/146/144 71/152/144 69/150/144
f 69/150/145 72/153/145 70/151/145
f 71/152/146 55/154/146 69/150/146
f 69/150/147 55/154/147 72/153/147
f 72/153/148 55/154/148 57/155/148
f 73/156/149 74/157/149 75/158/149
f 76/159/150 75/158/150 74/157/150
f 74/157/151 45/160/151 76/159/151
f 108/161/152 75/158/152 76/159/152
f 108/161/153 76/159/153 77/162/153
f 77/162/154 76/159/154 110/163/154
f 78/164/155 47/165/155 79/166/155
f 78/164/156 79/166/156 48/167/156
f 48/167/157 79/166/157 50/168/157
f 80/169/158 50/168/158 79/166/158
f 14/170/159 65/171/159 81/172/159
f 14/170/160 81/172/160 90/173/160
f 90/173/161 81/172/161 66/174/161
f 66/174/162 67/175/162 90/173/162
f 90/173/163 67/175/163 91/176/163
f 102/177/164 91/176/164 67/175/164
f 102/177/165 67/175/165 104/178/165
f 67/175/166 105/179/166 104/178/166
f 115/180/167 105/179/167 67/175/167
f 82/181/168 116/182/168 83/183/168
f 84/184/169 85/185/169 86/186/169
f 86/186/170 56/187/170 84/184/170
f 56/187/171 86/186/171 87/188/171
f 56/187/172 87/188/172 57/189/172
f 96/190/173 57/189/173 87/188/173
f 96/190/174 87/188/174 86/186/174
f 88/191/175 96/190/175 86/186/175
f 86/186/176 85/185/176 89/192/176
f 86/186/177 89/192/177 88/191/177
f 14/193/178 89/192/178 85/185/178
f 14/193/179 90/194/179 89/192/179
f 88/191/180 89/192/180 90/194/180
f 91/195/181 88/191/181 90/194/181
f 29/196/182 92/197/182 62/198/182
f 29/196/183 107/199/183 92/197/183
f 109/200/184 92/197/184 107/199/184
f 18/201/185 93/202/185 94/203/185
f 72/204/186 57/205/186 70/206/186
f 57/205/187 95/207/187 70/206/187
f 57/205/188 96/208/188 95/207/188
f 96/208/189 88/209/189 95/207/189
f 97/210/190 70/206/190 95/207/190
f 70/206/191 97/210/191 98/211/191
f 68/212/192 98/211/192 97/210/192
f 97/210/193 95/207/193 99/213/193
f 68/212/194 97/210/194 99/213/194
f 99/213/195 95/207/195 88/209/195
f 102/214/196 68/212/196 99/213/196
f 88/209/197 102/214/197 99/213/197
f 88/209/198 91/215/198 102/214/198
f 100/216/199 94/217/199 93/218/199
f 68/219/200 21/220/200 20/221/200
f 21/220/201 68/219/201 101/222/201
f 68/219/202 102/223/202 101/222/202
f 102/223/203 104/224/203 101/222/203
f 18/225/204 101/226/204 93/227/204
f 101/226/205 18/225/205 21/228/205
f 101/226/206 103/229/206 93/227/206
f 103/229/207 101/226/207 104/230/207
f 105/231/208 103/229/208 104/230/208
f 106/232/209 77/233/209 107/234/209
f 106/232/210 108/235/210 77/233/210
f 109/236/211 107/234/211 77/233/211
f 63/237/212 109/236/212 77/233/212
f 110/238/213 63/237/213 77/233/213
f 111/239/214 63/237/214 110/238/214
f 93/240/215 112/241/215 100/242/215
f 113/243/216 100/242/216 112/241/216
f 93/240/217 114/244/217 112/241/217
f 114/244/218 113/243/218 112/241/218
f 114/244/219 93/240/219 103/245/219
f 80/246/220 113/243/220 114/244/220
f 103/245/221 105/247/221 114/244/221
f 80/246/222 114/244/222 50/248/222
f 114/244/223 105/247/223 115/249/223
f 115/249/224 50/248/224 114/244/224
f 80/250/225 116/251/225 117/252/225
f 80/250/226 79/253/226 116/251/226
f 32/254/227 80/250/227 117/252/227
f 32/254/228 30/255/228 80/250/228
f 113/256/229 80/250/229 30/255/229
f 113/256/230 30/255/230 118/257/230
f 27/258/231 113/256/231 118/257/231
f 40/259/232 113/256/232 27/258/232
